<?xml version="1.0" encoding="UTF-8" standalone="no"?>
<svg
   height="128"
   viewBox="0 -960 2560 2560"
   width="128"
   fill="#1f1f1f"
   version="1.1"
   id="svg1"
   sodipodi:docname="icon.svg"
   inkscape:version="1.3 (0e150ed6c4, 2023-07-21)"
   inkscape:export-filename="icon.png"
   inkscape:export-xdpi="96"
   inkscape:export-ydpi="96"
   xmlns:inkscape="http://www.inkscape.org/namespaces/inkscape"
   xmlns:sodipodi="http://sodipodi.sourceforge.net/DTD/sodipodi-0.dtd"
   xmlns="http://www.w3.org/2000/svg"
   xmlns:svg="http://www.w3.org/2000/svg">
  <defs
     id="defs1" />
  <sodipodi:namedview
     id="namedview1"
     pagecolor="#ffffff"
     bordercolor="#999999"
     borderopacity="1"
     inkscape:showpageshadow="0"
     inkscape:pageopacity="0"
     inkscape:pagecheckerboard="0"
     inkscape:deskcolor="#d1d1d1"
     inkscape:zoom="1.4713542"
     inkscape:cx="53.692035"
     inkscape:cy="80.538053"
     inkscape:window-width="1600"
     inkscape:window-height="821"
     inkscape:window-x="-9"
     inkscape:window-y="-9"
     inkscape:window-maximized="1"
     inkscape:current-layer="svg1" />
  <path
     d="m 1280,1138.1818 c -265.4546,0 -505.45456,-75.4545 -720.00001,-226.36362 C 345.4545,760.90909 185.4545,563.63636 80,320 185.4545,76.3637 345.4545,-120.9091 559.99999,-271.8182 774.54544,-422.7273 1014.5454,-498.1818 1280,-498.1818 c 265.4545,0 505.4545,75.4545 720,226.3636 214.5455,150.9091 374.5455,348.1819 480,591.8182 -105.4545,243.63636 -265.4545,440.90909 -480,591.81818 -214.5455,150.90912 -454.5455,226.36362 -720,226.36362 z m -0.4636,-163.63635 c 220.3091,0 422.7363,-59.54546 607.2818,-178.63637 C 2071.3636,676.81817 2211.8181,518.18181 2308.1818,320 2211.8181,121.8182 2071.5181,-36.8182 1887.2818,-155.9091 1703.0455,-275 1500.7727,-334.5455 1280.4636,-334.5455 1060.1545,-334.5455 857.72726,-275 673.18181,-155.9091 488.63635,-36.8182 347.2727,121.8182 249.0909,320 347.2727,518.18181 488.4818,676.81817 672.71817,795.90908 856.95454,914.99999 1059.2273,974.54545 1279.5364,974.54545 Z"
     id="path1"
     style="fill:#ff5555;stroke-width:1"
     sodipodi:nodetypes="sscssscsssscssscss" />
  <text
     xml:space="preserve"
     style="font-style:normal;font-weight:normal;font-size:800px;line-height:1.25;font-family:sans-serif;fill:#000000;fill-opacity:1;stroke:none;stroke-width:20"
     x="580.39062"
     y="569.57031"
     id="text1"><tspan
       sodipodi:role="line"
       id="tspan1"
       style="font-style:normal;font-variant:normal;font-weight:bold;font-stretch:normal;font-family:'Noto Sans';-inkscape-font-specification:'Noto Sans Bold';fill:#008000;stroke-width:20"
       x="580.39062"
       y="569.57031">NJK</tspan></text>
</svg>
